<?xml version="1.0" encoding="utf-8"?>
<!-- Generator: Adobe Illustrator 24.0.1, SVG Export Plug-In . SVG Version: 6.00 Build 0)  -->
<svg version="1.1" id="Laag_2" xmlns="http://www.w3.org/2000/svg" xmlns:xlink="http://www.w3.org/1999/xlink" x="0px" y="0px"
	 viewBox="0 0 141.7 229.6" style="enable-background:new 0 0 141.7 229.6;" xml:space="preserve">
<style type="text/css">
	.st0{fill:url(#SVGID_1_);}
</style>
<linearGradient id="SVGID_1_" gradientUnits="userSpaceOnUse" x1="3.4387" y1="231.5911" x2="138.294" y2="-1.9852">
	<stop  offset="0" style="stop-color:#0E657D"/>
	<stop  offset="0.4033" style="stop-color:#28879C"/>
	<stop  offset="0.7731" style="stop-color:#3B9FB3"/>
	<stop  offset="1" style="stop-color:#42A8BB"/>
</linearGradient>
<path class="st0" d="M0,39V0h38.1c-1.2,0.5-2.3,1.1-3.5,1.7C19.1,10,7,23,0,39z M129.2,229.6h12.5v-12.4
	C139.5,222.9,135.1,227.4,129.2,229.6z M134,209.1V209c0-7.3-5.4-13-12.8-13c-7.4,0-12.5,5.6-12.5,12.9v0.1
	c0,7.3,5.2,13.1,12.6,13.1C128.7,222.1,134,216.4,134,209.1z M6.1,54c-5.3,17.1-3.5,35.3,4.9,51.1c8.4,15.8,22.4,27.4,39.6,32.7
	c17.1,5.3,35.3,3.5,51.1-4.9c15.8-8.4,27.4-22.4,32.7-39.6c2-6.5,3-13.1,3-19.8c0-8.8-1.7-17.5-5.2-25.7c1.6,8.2,1.2,16.8-1.4,25.1
	c-4.1,13.3-13.1,24.1-25.3,30.6c-7.6,4-15.9,6.1-24.3,6.1c-5.1,0-10.3-0.8-15.3-2.3C52.5,103.3,41.6,94.3,35.1,82
	c-13.4-25.3-3.8-56.8,21.5-70.2c4.7-2.5,9.7-4.2,14.8-5.2C60.2,6.4,49,9,38.7,14.5C22.9,22.9,11.3,36.9,6.1,54z M74.4,55.6
	c-3.5,0-6.7-1.1-9.4-3c3.3,5.8,8.7,10.1,15.1,12.1c6.7,2.1,13.9,1.4,20.1-1.9c6.2-3.3,10.8-8.8,12.8-15.6c2.1-6.7,1.4-13.9-1.9-20.1
	c-6.8-12.8-22.8-17.7-35.6-10.9c-4.2,2.3-7.6,5.5-10,9.3c2.5-1.6,5.6-2.6,8.8-2.6c9,0,16.3,7.3,16.3,16.3
	C90.7,48.3,83.4,55.6,74.4,55.6z M39.6,73.3C45,83.5,54.1,91,65.1,94.4c11.1,3.4,22.8,2.3,33-3.1c10.2-5.4,17.7-14.5,21.1-25.5
	c3.1-10,2.4-20.6-1.7-30.1c1,5.1,0.7,10.4-0.9,15.6c-2.6,8.4-8.2,15.2-16,19.3c-4.8,2.5-10,3.8-15.3,3.8c-3.2,0-6.5-0.5-9.6-1.5
	c-8.4-2.6-15.2-8.2-19.3-16C47.9,41,54,21.2,69.9,12.7c2.5-1.3,5.2-2.3,7.9-3c-6.8,0-13.8,1.6-20.3,5C36.4,26,28.4,52.2,39.6,73.3z
	 M107.5,139.2c-37.9,20.1-85.1,5.6-105.1-32.3c-0.9-1.6-1.7-3.3-2.4-5v127.6h11v-41.1h7.3l17.6,23.8v-23.8h8.9v41.1h12.6l-10.3-41.1
	h10.1l5.5,24.1l7.4-24.2h7.5l7.4,24.4l5.5-24.3h10l-10.3,41.1h22.7c-8.4-3.1-13.8-11.1-13.8-20.5V209c0-12.1,9.1-21.9,22-21.9
	c9.8,0,17.3,5.6,20.5,13.6V103C134.7,118.5,122.8,131.1,107.5,139.2z M104.1,0c15.2,7.1,27.7,18.9,35.7,34c0.7,1.3,1.3,2.6,1.9,3.9
	V0H104.1z M65.9,229.6h16l-8-24.2L65.9,229.6z M20,229.6h17.9L20,205.4V229.6z"/>
</svg>
