<?xml version="1.0" standalone="no"?>
<!DOCTYPE svg PUBLIC "-//W3C//DTD SVG 20010904//EN"
 "http://www.w3.org/TR/2001/REC-SVG-20010904/DTD/svg10.dtd">
<svg version="1.0" xmlns="http://www.w3.org/2000/svg"
 width="275.000000pt" height="183.000000pt" viewBox="0 0 275.000000 183.000000"
 preserveAspectRatio="xMidYMid meet">

<g transform="translate(0.000000,183.000000) scale(0.100000,-0.100000)"
fill="#000000" stroke="none">
<path d="M0 915 l0 -915 1375 0 1375 0 0 915 0 915 -1375 0 -1375 0 0 -915z
m1391 685 c9 -25 16 -30 45 -30 40 0 42 -9 10 -39 -21 -19 -23 -27 -15 -48 13
-34 5 -39 -26 -19 -23 15 -27 15 -56 0 l-31 -16 7 32 c6 26 2 37 -21 61 l-28
29 38 0 c33 0 39 4 49 30 6 17 13 30 15 30 2 0 8 -13 13 -30z m332 -110 l41 0
-28 -29 c-23 -24 -27 -35 -21 -61 l7 -32 -31 16 c-29 15 -33 15 -56 0 -31 -20
-39 -15 -26 17 7 20 4 29 -22 57 l-31 32 41 0 c37 0 42 3 53 33 l13 32 10 -32
c9 -30 13 -33 50 -33z m-628 20 c6 -27 10 -30 48 -30 l41 0 -28 -29 c-23 -24
-27 -35 -22 -57 6 -23 5 -25 -11 -18 -23 10 -63 10 -85 0 -16 -7 -17 -4 -12
22 5 25 1 36 -21 56 l-28 26 37 0 c32 0 38 4 47 30 6 17 15 30 19 30 5 0 11
-13 15 -30z m-172 -230 l41 0 -31 -32 c-24 -25 -29 -38 -23 -53 14 -33 11 -35
-24 -18 -33 15 -36 15 -62 -2 l-27 -17 7 34 c5 29 2 38 -20 59 l-26 24 38 5
c34 4 40 9 48 40 l10 35 14 -38 c14 -34 18 -37 55 -37z m1031 0 l38 -5 -26
-25 c-21 -19 -25 -30 -21 -52 7 -31 -2 -35 -30 -14 -17 12 -24 12 -48 -1 -35
-17 -40 -14 -28 18 7 19 4 29 -17 52 l-26 27 33 0 c28 0 34 5 48 38 l16 37 12
-35 c10 -30 17 -36 49 -40z m94 -330 l36 0 -27 -28 c-24 -25 -26 -32 -17 -57
9 -24 8 -26 -7 -19 -23 10 -63 10 -87 -1 -17 -7 -18 -5 -13 21 4 22 0 35 -21
57 l-26 27 36 0 c33 0 38 3 49 38 l13 37 14 -37 c13 -34 18 -38 50 -38z
m-1263 28 c8 -28 15 -34 44 -36 l33 -3 -22 -24 c-17 -19 -21 -31 -17 -55 7
-34 1 -37 -31 -14 -20 14 -24 14 -44 0 -32 -23 -38 -20 -31 15 5 24 0 36 -23
60 l-29 31 40 -4 c37 -3 40 -1 49 30 11 41 19 41 31 0z m86 -298 c9 -25 16
-30 45 -30 40 0 42 -9 10 -39 -21 -19 -23 -27 -15 -48 13 -34 5 -39 -26 -19
-23 15 -27 15 -56 0 l-31 -16 7 32 c6 26 2 37 -21 61 l-28 29 38 0 c32 0 38 4
47 30 6 17 13 30 15 30 3 0 10 -13 15 -30z m1087 -40 l36 0 -27 -28 c-24 -25
-26 -33 -18 -55 12 -31 10 -32 -27 -13 -24 12 -30 12 -47 0 -28 -21 -38 -17
-32 14 4 20 -1 34 -21 55 l-26 27 36 0 c33 0 38 3 49 38 l13 37 14 -37 c13
-34 18 -38 50 -38z m-822 -210 c40 0 42 -9 10 -39 -20 -19 -23 -28 -16 -51 l8
-29 -33 16 c-31 15 -36 15 -61 -2 l-27 -17 7 34 c5 29 2 38 -20 59 l-26 24 38
5 c34 4 40 9 48 40 l10 35 14 -38 c13 -33 19 -37 48 -37z m600 0 c40 0 42 -9
10 -39 -20 -19 -23 -28 -15 -48 13 -35 12 -35 -23 -17 -29 15 -33 15 -61 -1
l-30 -18 7 35 c5 29 2 38 -20 59 l-26 24 38 5 c34 4 40 9 48 40 l10 35 14 -38
c13 -33 19 -37 48 -37z m-345 -50 c10 -27 15 -30 52 -30 l41 0 -31 -32 c-26
-28 -29 -37 -22 -57 12 -32 6 -36 -24 -16 -24 15 -28 15 -57 0 l-32 -17 7 32
c6 26 2 37 -21 61 l-28 29 38 0 c33 0 39 4 49 30 6 17 13 30 15 30 2 0 8 -13
13 -30z"/>
</g>
</svg>
