<?xml version="1.0" standalone="no"?>
<!DOCTYPE svg PUBLIC "-//W3C//DTD SVG 20010904//EN"
 "http://www.w3.org/TR/2001/REC-SVG-20010904/DTD/svg10.dtd">
<svg version="1.0" xmlns="http://www.w3.org/2000/svg"
 width="344.000000pt" height="146.000000pt" viewBox="0 0 344.000000 146.000000"
 preserveAspectRatio="xMidYMid meet">

<g transform="translate(0.000000,146.000000) scale(0.100000,-0.100000)"
fill="#000000" stroke="none">
<path d="M1992 1448 c-17 -17 -15 -53 3 -68 21 -17 22 -190 2 -190 -23 0 -49
-37 -51 -70 -1 -28 -11 -36 -101 -89 -90 -53 -101 -58 -119 -45 -26 18 -66 18
-91 0 -18 -12 -28 -9 -92 28 -55 31 -73 47 -77 68 -5 28 -32 43 -59 32 -23 -8
-30 -39 -17 -65 10 -17 18 -20 46 -16 28 5 48 -2 104 -34 65 -38 70 -43 70
-74 0 -36 37 -75 70 -75 33 0 70 39 70 75 0 32 5 36 103 93 92 52 106 57 122
46 49 -36 115 -1 115 59 0 33 -24 67 -48 67 -19 0 -16 174 3 190 30 25 12 80
-25 80 -9 0 -21 -5 -28 -12z"/>
<path d="M1658 1359 c-22 -12 -23 -52 -3 -69 8 -7 25 -10 40 -6 20 5 25 13 25
36 0 19 -7 33 -19 40 -23 12 -22 12 -43 -1z"/>
<path d="M2338 1359 c-21 -12 -24 -49 -6 -67 18 -18 56 -14 68 7 12 24 4 48
-21 61 -21 12 -20 12 -41 -1z"/>
<path d="M0 735 l0 -175 35 0 35 0 0 175 0 175 -35 0 -35 0 0 -175z"/>
<path d="M372 885 c-39 -33 -48 -74 -27 -115 12 -24 34 -39 86 -63 63 -27 70
-33 67 -56 -5 -40 -46 -49 -98 -22 l-41 21 -19 -22 c-19 -23 -18 -23 3 -40 31
-25 94 -41 134 -33 19 3 48 19 66 35 25 22 32 36 32 68 0 51 -16 69 -95 104
-72 33 -83 44 -69 70 12 22 53 23 89 3 22 -12 27 -11 43 2 25 24 21 39 -17 57
-53 25 -119 21 -154 -9z"/>
<path d="M830 735 l0 -175 35 0 35 0 0 175 0 175 -35 0 -35 0 0 -175z"/>
<path d="M1170 735 l0 -175 90 0 c134 0 183 30 210 129 9 34 8 53 -4 96 -27
91 -87 125 -223 125 l-73 0 0 -175z m202 76 c21 -23 28 -42 28 -72 0 -77 -39
-118 -112 -119 l-48 0 0 116 0 117 52 -5 c42 -4 57 -11 80 -37z"/>
<path d="M1935 890 c-63 -31 -90 -80 -90 -160 0 -58 4 -71 29 -104 39 -52 105
-80 165 -72 148 20 213 193 113 300 -54 58 -144 73 -217 36z m128 -54 c43 -18
67 -56 67 -107 0 -33 -6 -47 -34 -75 -29 -29 -41 -34 -79 -34 -104 0 -155 122
-79 192 43 41 73 46 125 24z"/>
<path d="M2700 735 l0 -175 35 0 35 0 0 60 c0 53 2 60 20 60 12 0 33 -21 60
-60 38 -57 43 -60 81 -60 l40 0 -40 59 -41 59 35 35 c40 40 46 86 19 138 -21
42 -68 59 -164 59 l-80 0 0 -175z m170 95 c42 -42 12 -90 -57 -90 l-43 0 0 55
0 55 40 0 c27 0 47 -7 60 -20z"/>
<path d="M3254 781 c-64 -39 -72 -138 -15 -195 27 -27 39 -31 84 -31 35 0 63
6 81 19 28 18 28 18 9 37 -16 17 -23 17 -50 7 -39 -14 -86 -2 -91 25 -3 15 6
17 82 17 80 0 86 1 86 20 0 94 -105 151 -186 101z m90 -41 c14 -5 26 -16 26
-25 0 -11 -12 -15 -50 -15 -54 0 -62 10 -28 34 27 19 21 18 52 6z"/>
<path d="M1630 590 c-12 -12 -20 -33 -20 -52 0 -30 -6 -36 -75 -76 -59 -33
-79 -40 -94 -33 -38 21 -80 -36 -49 -67 27 -27 78 -7 78 29 0 11 27 33 72 59
l71 41 35 -17 c33 -16 38 -16 67 0 l31 17 101 -58 c88 -50 101 -61 101 -83 -1
-34 17 -67 42 -75 18 -6 20 -15 20 -95 0 -70 -3 -89 -16 -94 -10 -4 -14 -16
-12 -38 3 -30 6 -33 38 -33 32 0 35 3 38 33 2 22 -2 34 -12 38 -13 5 -16 24
-16 95 0 53 4 89 10 89 22 0 50 41 50 74 0 25 -7 40 -26 55 -32 25 -47 26 -83
5 -26 -15 -29 -14 -128 43 -97 55 -102 60 -103 91 0 41 -31 72 -70 72 -17 0
-39 -9 -50 -20z"/>
<path d="M1648 170 c-20 -15 -21 -21 -10 -44 22 -49 91 -25 78 28 -8 31 -40
39 -68 16z"/>
</g>
</svg>
